<?xml version="1.0" standalone="no"?><!DOCTYPE svg PUBLIC "-//W3C//DTD SVG 1.1//EN" "http://www.w3.org/Graphics/SVG/1.1/DTD/svg11.dtd"><svg class="icon" width="200px" height="200.00px" viewBox="0 0 1024 1024" version="1.1" xmlns="http://www.w3.org/2000/svg"><path fill="#cdcdcd" d="M467.669333 538.24c0.426667 1.408 0.768 2.858667 1.024 4.352C480.768 611.285333 512.426667 640 573.013333 640 669.610667 640 768 520.106667 768 395.093333 768 264.832 663.082667 170.666667 493.056 170.666667 345.728 170.666667 256 279.466667 256 395.093333c0 56.874667 11.690667 93.653333 32.085333 112.512a42.666667 42.666667 0 1 1-57.984 62.634667C189.482667 532.608 170.666667 473.514667 170.666667 395.093333 170.666667 235.52 294.570667 85.333333 493.056 85.333333 708.266667 85.333333 853.333333 215.509333 853.333333 395.093333c0 168.789333-132.437333 330.24-280.32 330.24-57.514667 0-103.424-18.474667-136.149333-53.546666l-53.973333 233.813333a42.666667 42.666667 0 1 1-83.114667-19.2l128-554.666667a42.666667 42.666667 0 0 1 83.114667 19.2l-43.221334 187.306667z" /></svg>